<?xml version="1.0" encoding="UTF-8"?><svg id="Layer_1" xmlns="http://www.w3.org/2000/svg" viewBox="0 0 785.91 153.47"><defs><style>.cls-1{fill:none;}.cls-2{fill:#96cf31;}.cls-3{fill:#336a1c;}.cls-4{fill:#900807;}.cls-5{fill:#3f8521;}.cls-6{fill:#10120d;}.cls-7{fill:#63b623;}.cls-8{fill:#499c24;}.cls-9{fill:#39771e;}</style></defs><path d="m9.01,81.08c.15.22.28.44.39.67.48.96,1.64,1.49,2.78,1.28,5.72-1.04,20.66-3.64,29.49-3.94,13.72-.47,26.79,3.55,40.42,4.81,18.62,1.72,36.96-2.72,55.43-5.26,10.8-1.48,23.88-.84,34.66,1.14,12.98,2.38,13.54,9.4,8.99,35.91-.29,1.7,6.07-9.97,5.91-11.58-.15-1.48,2.39-14.01,2.59-15.35.2-1.31,1.58-11.85.32-12.52-10.7-5.61-15.66-6.77-27.65-7.18-8.84-.3-17.7-.29-26.53.32-8.77.6-17.32,2.13-26.03,2.51-7.04.31-14.08.65-21.13.92-15.19.58-28.63-.82-43.8-1.93-6.86-.5-14.92.96-21.67,2.18-3.9.71-7.78,1.51-11.65,2.35-2.77.6-4.01,3.46-2.53,5.67Z"/><path class="cls-7" d="m70.81,120.55c1.58,4.66,5.42,8.58,9.57,11.04,2.07,1.22,4.32,2.14,6.63,2.79,3.01.84,6.16.81,9.22,1.5,1.41.32,2.84.79,4.04,1.61,1.61,1.09,1.71,2.13,1.97,3.86.04.28.2.56.47.67.29.12.64-.01.86-.24s.32-.54.4-.84c.83-3.42-2.48-6.99-5.29-8.38-1.78-.88-3.76-1.22-5.66-1.81-3.71-1.16-6.54-4.04-7.55-7.82,0,0-11.38-.7-14.57-2.45-.05-.03-.11.02-.09.08Z"/><path class="cls-8" d="m102.94,142.21c-.09,0-.19-.02-.28-.06-.29-.12-.5-.42-.56-.78l-.02-.16c-.24-1.61-.38-2.58-1.88-3.6-1.02-.69-2.33-1.21-3.99-1.59-1.37-.31-2.79-.48-4.16-.64-1.67-.2-3.4-.4-5.07-.87-2.42-.68-4.66-1.62-6.67-2.8-4.67-2.76-8.18-6.81-9.64-11.11h0c-.03-.08,0-.17.06-.23.07-.06.16-.07.24-.02,3.12,1.71,14.39,2.43,14.51,2.43h.11s.03.11.03.11c.98,3.69,3.76,6.57,7.45,7.72.59.18,1.21.35,1.8.51,1.3.35,2.65.71,3.88,1.31,2.68,1.32,6.24,4.95,5.37,8.55-.07.28-.18.64-.43.91-.18.19-.45.34-.74.33Zm-31.92-21.52c1.47,4.17,4.9,8.08,9.44,10.76,1.98,1.17,4.2,2.1,6.6,2.77,1.64.46,3.36.66,5.02.86,1.38.16,2.8.33,4.19.64,1.7.38,3.04.92,4.1,1.63,1.61,1.09,1.77,2.17,2.01,3.8l.02.16c.04.26.19.48.38.55.25.1.53-.04.69-.2.21-.22.3-.53.36-.78.83-3.44-2.62-6.93-5.21-8.21-1.21-.59-2.54-.95-3.82-1.29-.6-.16-1.21-.32-1.81-.51-3.75-1.17-6.59-4.09-7.62-7.82-1.2-.08-11.09-.76-14.34-2.37Zm-.07-.19h0s0,0,0,0Z"/><path class="cls-8" d="m102.94,142.41c-.12,0-.24-.02-.35-.07-.35-.14-.62-.5-.68-.94l-.02-.16c-.24-1.61-.37-2.49-1.8-3.46-1-.68-2.28-1.19-3.93-1.56-1.36-.31-2.77-.47-4.13-.63-1.68-.2-3.42-.4-5.1-.87-2.43-.68-4.69-1.63-6.71-2.82-4.71-2.78-8.26-6.87-9.73-11.22-.06-.16,0-.34.13-.45.13-.11.32-.13.47-.05,3.09,1.69,14.31,2.4,14.42,2.41l.25.02.06.24c.96,3.62,3.69,6.45,7.31,7.58.59.18,1.2.35,1.79.5,1.31.35,2.67.71,3.92,1.33,2.74,1.35,6.37,5.07,5.48,8.77-.07.31-.2.7-.48,1-.24.26-.57.4-.89.39Zm-31.56-21.34c1.54,3.96,4.85,7.65,9.19,10.21,1.97,1.16,4.17,2.09,6.55,2.75,1.63.46,3.34.66,4.99.85,1.38.16,2.81.33,4.21.65,1.73.39,3.09.93,4.16,1.66,1.68,1.14,1.85,2.25,2.09,3.94l.02.16c.03.19.13.35.25.4.13.05.34-.01.47-.16.17-.18.26-.46.31-.69.81-3.33-2.57-6.73-5.11-7.98-1.19-.59-2.51-.94-3.79-1.28-.6-.16-1.22-.32-1.82-.51-3.77-1.17-6.64-4.09-7.71-7.82-1.62-.11-10.29-.75-13.83-2.18Zm-.23-.64h0s0,0,0,0c0,0,0,0,0,0Z"/><g id="Group_1"><g id="Path_2"><path class="cls-1" d="m103.04,43.08c-.38-.11-.76-.16-1.16-.15-.67.03-1.34.12-2,.27-1.26.21-2.51.52-3.71.94-1.22.42-2.29,1.17-3.11,2.16-1.72-1.59-3.64-2.95-5.71-4.03-1.93-.99-4.16-1.23-6.25-.66-1.54.58-2.92,1.53-4.02,2.77-1.79,1.84-3.29,3.96-4.42,6.26-2.25-1.52-5.63-1.59-8.24-2.11-.87-.17-1.75-.35-2.62-.5-1.72-.29-3.45-.49-5.19-.58-.52-.07-1.04-.01-1.53.16-1.14.5-1.37,1.97-1.59,3.19-.28,1.61-.97,5.32-2.64,5.65-1.45.28-3.38-.72-4.81-1-2.02-.39-4.09-.5-6.15-.31-1.63.15-2.25.73-2.82,2.21-.47,1.48-1.03,2.94-1.68,4.35-.6,1.11-1.42,2.09-1.97,3.23-1.01,2.41-1.05,5.12-.1,7.56,1.46,4.22,4.54,7.82,6.92,11.54,3.59,5.59,6.35,11.67,9.66,17.43,4.19,7.28,9.58,14.18,17.22,18.04,5.26,2.66,11.31,3.28,17.14,3.92,6.62.84,13.32.72,19.9-.36,9.44-1.7,18.23-6.03,25.95-11.64,3.83-2.79,7.44-5.87,10.78-9.23,1.78-1.76,3.4-3.68,4.84-5.73,1.41-2.04,2.73-4.36,3.99-6.4,4.57-7.43,8.44-15.27,11.57-23.42.11-.22.15-.47.11-.72-.03-.34,0-.69.06-1.03.55-3.11-.84-4.58-1.07-7.43-.12-1.5-1.43-5.38-2.94-6.31-2.43-1.5-6.16-.91-8.64.06-.28.13-.58.22-.88.27-.36.02-.72,0-1.07-.08-1.53-.22-3.08-.12-4.57.3-.75.21-1.48.49-2.18.83-.39.2-.76.42-1.12.66-.19.14-.38.26-.6.35-.32.11.21.21,0,0-.27-.26-.21-1.01-.37-1.35-.21-.45-.7-1.35-.92-1.79-1.3-2.58-3.14-4.64-4.73-7.05-.31-.53-.73-.99-1.23-1.34-.77-.38-1.65-.49-2.5-.32-2.38.32-4.69,1.02-6.84,2.07-1.14.53-2.15,1.33-3.23,1.97-.55.34-1.13.63-1.73.86-.65.23-1.36.18-1.96-.15-.07-.03-.13-.06-.2-.1-1.54-.76-2.81-2-4.38-2.67-.9-.38-1.88-.58-2.86-.56-.51,0-1.02.06-1.51.19-.43.19-.9.3-1.37.34-.44-.08-.86-.24-1.24-.47-.1-.04-.2-.08-.31-.11h0Z"/></g><g id="Path_3"><path class="cls-7" d="m102.89,43.27c-.38-.11-.76-.16-1.16-.15-.67.03-1.34.12-2,.27-1.26.21-2.51.52-3.71.94-1.22.42-2.29,1.17-3.11,2.16-1.72-1.59-3.64-2.95-5.72-4.04-1.93-.99-4.16-1.23-6.25-.66-1.54.58-2.92,1.53-4.02,2.77-1.79,1.84-3.29,3.96-4.42,6.26-2.25-1.52-5.63-1.59-8.24-2.11-.87-.17-1.75-.35-2.62-.5-1.72-.29-3.45-.49-5.19-.58-.52-.07-1.04-.01-1.53.16-1.14.5-1.37,1.97-1.59,3.19-.28,1.61-.97,5.32-2.64,5.65-1.66.32-3.37-.7-4.97-1.02-2.03-.4-4.11-.49-6.17-.27-.52.03-1.04.17-1.5.42-1.08.67-1.22,2.14-1.56,3.37-.66,2.36-2.38,4.21-3.32,6.44-.98,2.51-.88,5.31.26,7.75,1.72,3.9,4.37,7.3,6.67,10.89,3.59,5.59,6.35,11.67,9.66,17.43,4.19,7.28,9.58,14.18,17.22,18.04,5.26,2.66,11.31,3.28,17.14,3.92,6.62.84,13.32.72,19.9-.36,9.44-1.7,18.23-6.03,25.95-11.64,3.83-2.79,7.44-5.87,10.78-9.23,1.78-1.76,3.4-3.68,4.84-5.73,1.41-2.04,2.62-4.11,3.88-6.15,4.46-7.22,8-14.93,11.34-22.74.93-2.17,1.1-4.6.48-6.87-.42-1.62-.66-2.65-1.13-4.24-.45-1.63-1.2-3.17-2.19-4.55-1.47-2.16-5.27-1.9-7.46-1.26-.86.32-1.75.57-2.65.74-.74.04-1.48.03-2.22-.05-2.78-.1-5.51.75-7.73,2.43,1.12-.86-6.15-11.52-7.58-11.97-.72-.18-1.48-.2-2.21-.05-2.49.36-4.89,1.18-7.07,2.43-1.78,1.01-4.15,3.28-6.31,2.29-.07-.03-.13-.06-.2-.1-1.54-.76-2.81-2-4.38-2.67-.9-.38-1.88-.58-2.86-.56-.51,0-1.01.06-1.51.18-.43.19-.9.3-1.37.34-.44-.08-.86-.24-1.24-.47-.1-.04-.2-.08-.31-.11h0Z"/><path class="cls-8" d="m91.58,124.29c-2.49-.05-4.98-.23-7.47-.54l-.37-.04c-5.73-.63-11.65-1.28-16.82-3.89-6.52-3.3-12.18-9.22-17.29-18.1-1.33-2.3-2.58-4.7-3.8-7.01-1.82-3.47-3.71-7.06-5.86-10.41-.63-.98-1.29-1.96-1.93-2.91-1.72-2.54-3.49-5.16-4.75-8.01-1.16-2.46-1.25-5.33-.27-7.86.41-.96.96-1.87,1.49-2.74.71-1.16,1.45-2.36,1.82-3.69.06-.23.12-.47.18-.71.26-1.07.52-2.17,1.45-2.74.49-.26,1.03-.41,1.57-.44,2.07-.22,4.16-.13,6.21.27.55.11,1.11.3,1.66.48,1.08.36,2.19.74,3.25.53,1.61-.32,2.3-4.24,2.52-5.53v-.06c.22-1.21.48-2.71,1.67-3.24.52-.18,1.07-.24,1.61-.17,1.73.1,3.48.29,5.2.59.88.15,1.77.33,2.63.5.67.13,1.38.24,2.13.34,2.14.31,4.34.63,6.03,1.7,1.13-2.27,2.6-4.34,4.37-6.15,1.1-1.24,2.51-2.21,4.07-2.8,2.14-.59,4.4-.35,6.37.66,2.04,1.07,3.94,2.4,5.64,3.95.82-.96,1.88-1.68,3.07-2.09,1.21-.42,2.47-.74,3.74-.94.65-.15,1.34-.24,2.02-.27.4,0,.8.05,1.18.15h.02c.11.04.22.08.33.12.38.23.78.38,1.19.46.45-.04.89-.15,1.3-.33.53-.14,1.05-.2,1.57-.2,1.01-.01,1.99.18,2.91.57.86.37,1.65.91,2.41,1.44.64.44,1.29.89,1.99,1.24.06.03.13.06.19.09,1.62.74,3.39-.45,4.95-1.5.43-.29.84-.57,1.23-.79,2.21-1.26,4.61-2.08,7.12-2.44.74-.15,1.52-.13,2.26.06.78.24,2.77,2.85,4.25,5.01,1.56,2.29,3.31,5.2,3.54,6.51.01.08.02.15.02.22,2.18-1.52,4.82-2.3,7.48-2.2.74.07,1.47.09,2.2.05.87-.17,1.75-.41,2.6-.73,1.95-.57,6.05-1.02,7.63,1.32,1.01,1.39,1.75,2.93,2.21,4.59.35,1.18.57,2.05.83,3.07.09.36.19.75.3,1.17.63,2.3.46,4.78-.49,6.97-3.18,7.42-6.76,15.31-11.35,22.76-.31.5-.62,1.01-.92,1.51-.93,1.53-1.89,3.11-2.96,4.65-1.44,2.05-3.07,3.98-4.85,5.75-3.34,3.35-6.98,6.46-10.8,9.24-8.46,6.16-17.21,10.08-26.01,11.67-4.13.67-8.31.97-12.48.9ZM42.15,55.38c-.86-.02-1.72.02-2.57.12-.51.02-1.01.16-1.45.4-.82.51-1.07,1.55-1.31,2.56-.06.24-.12.49-.18.72-.39,1.37-1.13,2.59-1.86,3.77-.53.86-1.08,1.75-1.47,2.69-.96,2.46-.86,5.24.26,7.63,1.25,2.83,3.02,5.44,4.73,7.97.64.95,1.31,1.93,1.94,2.91,2.16,3.36,4.05,6.96,5.87,10.44,1.21,2.31,2.47,4.7,3.79,7,5.08,8.83,10.69,14.71,17.16,17.98,5.12,2.59,11.02,3.24,16.72,3.86l.37.04c6.61.84,13.29.72,19.86-.36,8.75-1.58,17.46-5.49,25.88-11.62,3.81-2.78,7.43-5.88,10.77-9.21,1.77-1.75,3.39-3.67,4.82-5.71,1.06-1.53,2.02-3.11,2.95-4.63.31-.51.61-1.01.93-1.51,4.59-7.43,8.16-15.31,11.33-22.72.92-2.13,1.08-4.54.47-6.78-.11-.43-.21-.81-.3-1.17-.26-1.01-.48-1.89-.82-3.06-.45-1.63-1.18-3.14-2.17-4.5-1.49-2.2-5.43-1.75-7.3-1.21-.86.32-1.75.57-2.66.74-.76.04-1.52.03-2.26-.04-2.73-.1-5.44.75-7.63,2.4h0s0,0,0,0l-.18-.23c.06-.05.08-.2.04-.42-.18-1.04-1.55-3.55-3.49-6.4-1.82-2.67-3.54-4.72-4.08-4.9-.69-.17-1.43-.19-2.13-.05-2.49.36-4.85,1.17-7.03,2.41-.38.21-.78.49-1.21.78-1.62,1.09-3.46,2.33-5.23,1.52-.07-.03-.14-.06-.2-.1-.71-.36-1.38-.82-2.02-1.26-.75-.52-1.52-1.05-2.35-1.41-.89-.38-1.83-.56-2.8-.55-.5,0-.99.06-1.47.18-.43.19-.9.31-1.39.35h-.02s-.02,0-.02,0c-.46-.08-.89-.25-1.29-.49-.07-.03-.17-.06-.26-.09h-.01c-.36-.11-.74-.15-1.11-.15-.66.03-1.32.11-1.97.26-1.26.21-2.5.52-3.7.93-1.19.41-2.24,1.15-3.04,2.12l-.1.12-.11-.11c-1.71-1.58-3.62-2.93-5.69-4.01-1.9-.98-4.08-1.21-6.14-.64-1.5.57-2.87,1.51-3.94,2.72-1.79,1.84-3.27,3.93-4.4,6.23l-.07.15-.14-.09c-1.64-1.11-3.88-1.43-6.05-1.74-.75-.11-1.46-.21-2.14-.35-.86-.17-1.75-.35-2.62-.5-1.71-.29-3.45-.49-5.17-.58-.5-.06-1.01,0-1.47.16-1.03.46-1.27,1.82-1.48,3.01v.06c-.42,2.33-1.15,5.45-2.77,5.77-1.14.22-2.29-.17-3.4-.54-.56-.19-1.1-.37-1.62-.47-1.18-.23-2.37-.36-3.56-.38Z"/></g><g id="Path_4"><path class="cls-5" d="m130.2,67.35c-1.48,9.98-9.95,17.22-18.27,18.44-12.97,1.9-21.81-6.17-27.56-18.64-5.27-11.43-2.41-25.59-2.41-25.59,0,0,4.61-1.35,10.96,4.93,0,0,23.36,1.71,24.72-.02,0,0,7.28-5.49,12.71-4.48,1,8.43.95,16.95-.15,25.37Z"/><path class="cls-8" d="m107.74,86.21c-9.88-.18-17.78-6.55-23.52-19.01-5.23-11.34-2.45-25.54-2.42-25.68l.02-.09.09-.02c.19-.06,4.75-1.29,11.07,4.93,6.52.47,23.47,1.39,24.54.03l.03-.03s1.86-1.39,4.34-2.63c2.3-1.15,5.64-2.4,8.48-1.87l.11.02v.11c1.01,8.44.96,16.98-.14,25.41h0c-.7,4.76-2.99,9.11-6.61,12.59-3.37,3.23-7.55,5.35-11.79,5.97-1.44.21-2.84.3-4.2.28Zm-25.67-44.54c-.23,1.24-2.55,14.64,2.42,25.41,6.47,14.04,15.69,20.28,27.41,18.56,7.65-1.12,16.61-7.92,18.15-18.31,1.09-8.36,1.15-16.85.16-25.22-5.18-.88-12.13,4.2-12.48,4.46-1.49,1.72-22.44.24-24.83.06h-.05s-.04-.04-.04-.04c-3.25-3.21-6.02-4.37-7.77-4.77-1.6-.37-2.67-.2-2.96-.14Z"/></g><g id="Path_5"><path class="cls-9" d="m109.18,72.9c.43.09,3.48.66,4.92-1.19.01-.02.01-.04,0-.06,0,0,0,0-.01,0-.3-.11-1.92-.69-2.85-.38-.02,0-.03.01-.05.02-.73.45-1.41.96-2.03,1.55-.01.02,0,.04.01.05,0,0,0,0,.01,0h0Z"/><path class="cls-8" d="m110.59,73.2c-.54,0-.99-.07-1.26-.12h0s-.24-.06-.24-.06l-.05-.03-.04-.14.04-.08v-.04s.03,0,.03,0c.63-.58,1.32-1.11,2.05-1.56.02-.02.05-.03.08-.04.98-.32,2.63.26,2.95.38l.05.03c.08.06.1.18.03.26-.93,1.19-2.48,1.42-3.64,1.4Zm-1.16-.4c.85.14,3.21.39,4.47-1.06-.42-.14-1.81-.59-2.61-.33-.67.41-1.29.87-1.86,1.39Z"/></g><g id="Path_6"><path class="cls-6" d="m117.05,57.01s-1.74,2.42-.94,4.92c.13.4,1.29-.62,1.4-.78.92-1.3.6-3.46-.47-4.14Z"/></g><g id="Path_7"><path class="cls-4" d="m110.58,71.98l.03.03c.41.22.76.55,1.01.95.19.4.33.83.39,1.27.25,1.23.34,2.48.29,3.73-.03.89-.25,1.77-.65,2.57-.36.67-.88,1.25-1.52,1.67.91-.23,1.68-.83,2.11-1.66-.03.53-.1,1.06-.2,1.58-.05.51-.18,1-.37,1.47.52-.63.83-1.41.89-2.22.23-1.16.29-2.52.46-3.69.14-1.11.08-2.23-.19-3.31-.23-.96-.51-1.91-.85-2.84-.3-.05-.61-.06-.91-.04-.34-.06-.68-.05-1.01.04.19.14.36.29.52.46Z"/></g><g id="Path_8"><path class="cls-7" d="m92.91,46.48c-.97,1.12-1.45,2.59-1.7,4.05-.61,3.64,1.39,6.81,3.58,9.52.88,1.09,1.81,2.12,2.81,3.1,1.53,1.64,2.84,3.46,3.91,5.43.3.48.56.98.79,1.49.23.55.33,1.14.6,1.68.27.53.69.97,1.19,1.28,2.21,1.41,5.13.91,6.75-1.15.07-.07.15-.13.24-.18.31-.16,1.07-.5,1.49-.28.81.42,1.74.52,2.62.29.31-.03.62-.13.9-.28.54-.45.86-1.11.9-1.81.26-1.54-.39-2.96-.8-4.4-.15-.69-.22-1.39-.21-2.09-.04-.73-.21-1.44-.28-2.16-.08-.74.04-1.48.36-2.15.53-.99.91-2.06,1.14-3.16.23-1.51-.15-3.01-.16-4.52-.01-1.29-.12-2.75-1.08-3.74-.24-.21-.51-.38-.79-.53-.62-.44-2.53-1.53-3.18-1.93-1.08-.74-1.98-1.3-3.37-1.52-.16-.03-.5-.06-.66-.08-.92-.09-1.24-.1-2.14.16-.26.11-1.09.32-1.37.34-.3-.04-.7-.19-.97-.32-1.52-.75-3.1-.28-4.58.1-1.43.23-2.97.58-4.21,1.32-.66.41-1.25.94-1.77,1.53h0Z"/><path class="cls-8" d="m106.74,73.98c-.94-.02-1.88-.29-2.73-.83-.53-.32-.96-.79-1.24-1.34-.16-.31-.25-.64-.35-.96-.07-.24-.15-.5-.25-.73-.23-.5-.49-1-.78-1.47-1.07-1.96-2.38-3.78-3.9-5.41-.99-.97-1.94-2.02-2.82-3.11-2.14-2.66-4.24-5.88-3.61-9.64.3-1.77.87-3.12,1.74-4.12h0c.56-.64,1.17-1.17,1.8-1.56,1.35-.81,2.99-1.14,4.26-1.34l.24-.06c1.45-.37,2.95-.76,4.43-.03.24.12.62.26.91.3.28-.02,1.06-.22,1.3-.33.94-.28,1.28-.27,2.22-.18.06,0,.14.02.22.03.16.02.35.04.45.06,1.41.22,2.31.77,3.43,1.54.23.14.62.37,1.05.63.81.48,1.73,1.02,2.13,1.3.27.14.55.33.8.54.97,1,1.12,2.44,1.13,3.85,0,.56.06,1.13.12,1.69.09.93.19,1.9.04,2.85-.23,1.12-.62,2.2-1.15,3.21-.3.64-.42,1.36-.35,2.07.03.31.08.63.13.93.06.4.13.82.15,1.24,0,.7.06,1.39.21,2.07.08.3.18.61.28.92.36,1.13.73,2.3.52,3.54-.04.72-.39,1.42-.95,1.9-.32.18-.64.28-.98.32-.89.23-1.86.13-2.7-.31-.25-.13-.76-.03-1.36.28-.07.04-.14.09-.2.15-1.05,1.33-2.62,2.02-4.21,1.99Zm-13.72-27.4c-.83.96-1.38,2.26-1.67,3.98-.61,3.64,1.45,6.8,3.55,9.4.87,1.08,1.81,2.12,2.8,3.09,1.54,1.65,2.87,3.49,3.94,5.46.3.48.57.98.8,1.5.11.25.19.51.26.76.1.32.19.62.33.91.26.5.65.92,1.14,1.22,2.16,1.37,4.98.89,6.56-1.11.09-.1.18-.17.29-.22.41-.21,1.16-.52,1.63-.28.78.4,1.67.5,2.51.28.32-.04.6-.12.86-.27.48-.41.79-1.03.83-1.69.2-1.19-.14-2.28-.51-3.42-.1-.31-.2-.62-.29-.93-.15-.7-.22-1.42-.22-2.13-.02-.39-.09-.8-.15-1.2-.05-.31-.1-.63-.13-.95-.08-.76.04-1.53.38-2.23.52-.99.9-2.04,1.13-3.13.14-.91.04-1.86-.05-2.77-.06-.56-.11-1.14-.12-1.72-.01-1.35-.14-2.72-1.04-3.63-.22-.19-.48-.36-.75-.5-.41-.29-1.36-.85-2.13-1.3-.44-.26-.83-.49-1.06-.64-1.09-.75-1.96-1.29-3.32-1.5-.1-.02-.28-.04-.44-.06-.09,0-.17-.02-.22-.03-.9-.09-1.21-.1-2.08.16-.26.12-1.1.33-1.4.35h-.02s-.02,0-.02,0c-.34-.05-.76-.21-1.01-.34-1.38-.68-2.83-.31-4.23.05l-.26.07c-1.26.2-2.87.53-4.17,1.31-.61.38-1.19.88-1.73,1.5h0Z"/></g><g id="Ellipse_1"><ellipse class="cls-3" cx="110.27" cy="70.95" rx=".79" ry=".26" transform="translate(-15.18 109.12) rotate(-49.68)"/></g><g id="Ellipse_2"><ellipse class="cls-3" cx="113.11" cy="70.4" rx=".26" ry=".79" transform="translate(18.93 164.64) rotate(-76.92)"/></g><g id="Ellipse_3"><ellipse class="cls-3" cx="108.38" cy="72.14" rx=".54" ry=".18" transform="translate(-18.34 42.26) rotate(-20.38)"/></g><g id="Ellipse_4"><ellipse class="cls-3" cx="106.37" cy="71.96" rx=".54" ry=".18" transform="translate(-18.4 41.55) rotate(-20.38)"/></g><g id="Ellipse_5"><ellipse class="cls-3" cx="104.8" cy="71.05" rx=".54" ry=".18" transform="translate(-18.18 40.95) rotate(-20.38)"/></g><g id="Ellipse_6"><ellipse class="cls-3" cx="103.61" cy="70.09" rx=".54" ry=".18" transform="translate(-17.92 40.47) rotate(-20.38)"/></g><g id="Ellipse_7"><ellipse class="cls-3" cx="108.83" cy="68.15" rx=".5" ry="1.1" transform="translate(-10.58 115.36) rotate(-53.63)"/></g><g id="Ellipse_8"><ellipse class="cls-3" cx="112.52" cy="67.91" rx="1.1" ry=".5" transform="translate(16.03 157.15) rotate(-73.88)"/></g><g id="Path_10"><path class="cls-6" d="m98.02,58.91s.96-2.36,2.43-1.11c1.01,1.01,1.19,2.58.44,3.79,0,0-1.13,1.79-2.52-.08,0,0-.86-.6-.35-2.6Z"/></g><g id="Path_11"><path class="cls-5" d="m151.51,66.31c-1.54,12.2-8.57,28.49-20.13,35.36-4.49,2.56-9.47,4.17-14.61,4.73-3.03.37-6.08.46-9.12.25-23.6-1.59-38.63-19.96-49.32-38.36-4.19-7.21-3.4-20.5-3.4-20.5,0,0,3.12-.62,11.19,1.22,0,0,6.64,1.23,6.39,1.81-1.42,3.23-.83,7.36-.06,10.63,1.56,6.22,3.97,12.19,7.18,17.74,4.57,8.27,10.46,16.43,20.03,19.23,9.74,2.85,20.79-1.91,27.77-8.73,9.49-9.27,11.97-23.19,10.61-35.93,0,0,3.84-1.9,6.46-2.13,1.17-.1,2.08.18,3.84-.22,3.6-.82,7.05-1.37,8.18-.51,0,0-3.26,1.64-5,15.41Z"/><path class="cls-8" d="m110.03,106.9c-.8-.01-1.6-.05-2.39-.1-25.29-1.71-40.33-22.75-49.43-38.43-2.18-3.75-2.99-9.15-3.29-13.01-.32-4.18-.13-7.53-.13-7.56v-.11s.12-.02.12-.02c.13-.03,3.25-.61,11.26,1.22,1.02.19,6.15,1.17,6.48,1.8.04.07.04.14.01.21-1.47,3.35-.74,7.62-.05,10.53,1.56,6.2,3.97,12.16,7.16,17.7,4.35,7.87,10.12,16.29,19.94,19.16,9.96,2.91,21.05-2.27,27.63-8.69,4.87-4.76,12.71-15.73,10.57-35.81v-.1s.08-.05.08-.05c.16-.08,3.89-1.92,6.51-2.15.43-.04.81-.02,1.22-.01.73.02,1.48.05,2.6-.21,4.75-1.09,7.31-1.24,8.3-.48l.08.06-.04.16-.06.03c-.13.07-3.24,1.95-4.93,15.3l-.15-.02.15.02c-.81,6.44-3.12,13.64-6.32,19.73-3.75,7.13-8.55,12.57-13.88,15.74-4.54,2.59-9.48,4.18-14.67,4.75-2.23.28-4.5.39-6.76.35Zm-54.96-58.98c-.03.63-.15,3.68.14,7.41.3,3.84,1.1,9.19,3.25,12.89,9.07,15.62,24.04,36.59,49.2,38.29,3.02.21,6.08.12,9.09-.25,5.16-.56,10.05-2.14,14.56-4.71,8.13-4.83,17.87-17.93,20.06-35.26,1.5-11.87,4.11-14.77,4.88-15.39-1.55-.8-6.28.28-7.88.65-1.15.26-1.96.24-2.67.21-.4-.01-.78-.03-1.19.01-2.34.2-5.72,1.79-6.31,2.07.71,6.75.28,13.39-1.25,19.21-1.77,6.73-4.93,12.36-9.41,16.73-5.42,5.3-13.9,9.75-22.31,9.6-1.88-.03-3.76-.3-5.6-.84-9.98-2.92-15.99-11.84-20.11-19.3-3.21-5.56-5.63-11.54-7.19-17.78-.69-2.95-1.44-7.26.06-10.69-.28-.35-3.38-1.1-6.27-1.64-7.12-1.62-10.4-1.32-11.03-1.24Z"/></g><g id="Path_12"><path class="cls-5" d="m119.79,111.27c-26.1,5.4-42.38.47-42.38.47-24.72-6.22-33.9-44.84-33.9-44.84-2.11-7.54-4.39-10.17-5.17-10.89-.08-.07-.08-.19-.01-.27.03-.03.06-.05.1-.06,3.32-.68,6.76-.43,9.93.74.59.41,1.32.55,2.02.39.11-.04.24,0,.28.12.01.03.02.06.02.09-.07,9.35,2.41,18.55,7.17,26.6,0,0,13.96,25.52,38.75,28.36,0,0,31.25,5.56,49.01-15.33,0,0-8.39,11.03-25.82,14.63Z"/><path class="cls-8" d="m94.27,113.91c-10.65-.19-16.81-2-16.91-2.03-12.82-3.23-21.38-15.28-26.31-24.83-5.33-10.33-7.67-20.03-7.69-20.12-2.07-7.4-4.28-10.03-5.13-10.82-.07-.06-.1-.14-.11-.23,0-.09.03-.18.09-.24.05-.05.11-.08.17-.1,3.35-.69,6.81-.43,10.02.74l.03.02c.55.38,1.25.52,1.9.37.17-.07.38.02.45.21.02.05.03.1.03.15-.07,9.32,2.4,18.49,7.15,26.52.04.07,3.56,6.45,10.06,13.09,5.99,6.13,15.82,13.74,28.57,15.2.09.02,7.92,1.38,17.82.17,3.65-.44,7.88-1.28,12.23-2.82,8-2.88,13.41-7.17,16.3-9.93.87-.85,1.71-1.75,2.52-2.71l.22-.25.04.33s-.01.05-.05.1h.01c-.05.07-.09.12-.14.17-.36.48-1.28,1.52-2.68,2.83-5.09,4.88-10.96,7.96-16.61,9.89-1.99.7-4.15,1.31-6.47,1.79h0c-10.08,2.08-18.73,2.62-25.54,2.5Zm-51.85-58.46c-1.33-.02-2.66.1-3.97.37-.03.03-.03.06-.02.07.87.81,3.12,3.48,5.21,10.96.02.1,2.36,9.77,7.67,20.07,4.9,9.49,13.41,21.47,26.12,24.68.15.04,12.88,3.78,33.5,1.03-8.22.56-14.31-.49-14.38-.5-12.84-1.47-22.72-9.13-28.75-15.29-6.53-6.67-10.07-13.08-10.1-13.15-4.77-8.07-7.26-17.29-7.19-26.67l.13-.09-.14.05s-.06-.06-.09-.04c-.75.17-1.52.03-2.14-.39-1.89-.69-3.87-1.06-5.86-1.1Z"/></g><g id="Path_13"><path class="cls-2" d="m138.69,76.53c.04-.11.09-.21.15-.31.23-.35.79-.77,1.24-.61.34.13.67.13.79.55.07.26.04.54-.07.78-.21.52-.66.9-1.2,1.02-.21.06-.44.03-.63-.08-.16-.12-.28-.29-.32-.49-.08-.29-.06-.59.04-.87Z"/></g><g id="Path_14"><path class="cls-2" d="m125.12,55.48c.04-.11.09-.21.15-.31.23-.35.79-.77,1.24-.61.34.13.67.13.79.55.07.26.04.54-.07.78-.21.52-.66.9-1.2,1.02-.21.06-.44.03-.63-.08-.16-.12-.28-.29-.32-.49-.08-.29-.07-.59.04-.87h0Z"/></g><g id="Path_15"><path class="cls-2" d="m136.41,99.94c.09-.08.19-.16.3-.22.37-.23.94-.42,1.03-.11.15.24.13.55-.03.77-.16.26-.37.49-.61.68-.35.35-.83.53-1.32.5-.14-.02-.24-.15-.24-.29.02-.2.1-.39.21-.55.18-.29.4-.55.66-.77h0Z"/></g><g id="Path_16"><path class="cls-2" d="m85.79,102.81c.11-.05.23-.08.35-.1.64-.07,1.27.17,1.71.63.3.4.65.69.55,1.12-.08.26-.28.46-.53.54-.65.19-1.35.09-1.91-.28-.27-.15-.49-.36-.64-.62-.1-.2-.13-.44-.06-.66.08-.28.28-.52.55-.64Z"/></g><g id="Path_17"><path class="cls-2" d="m152.42,79.87c.04-.07.08-.13.13-.19.17-.22.46-.44.58-.28.09.12.2.16.14.46-.04.19-.11.37-.22.53-.13.28-.38.49-.67.57-.09.02-.17-.04-.2-.12-.03-.12-.02-.25.01-.37.04-.21.12-.41.22-.6Z"/></g><g id="Path_18"><path class="cls-2" d="m154.01,71.02c.04-.07.08-.13.13-.19.17-.22.46-.44.58-.28.09.12.2.16.14.46-.04.19-.11.37-.22.53-.13.28-.38.49-.67.57-.09.02-.17-.04-.2-.12-.03-.12-.02-.25.01-.37.04-.21.12-.41.22-.6Z"/></g><g id="Path_19"><path class="cls-2" d="m88.54,77.6c.05-.05.1-.09.15-.13.27-.18.62-.2.91-.05.2.15.41.22.42.48,0,.16-.07.3-.19.41-.26.24-.62.35-.97.28-.15-.02-.29-.08-.4-.19-.08-.09-.12-.21-.12-.34,0-.17.07-.34.18-.46Z"/></g><g id="Path_20"><path class="cls-2" d="m76.6,51.07c.05-.05.1-.09.15-.13.27-.18.62-.2.91-.05.2.15.41.22.42.48,0,.16-.07.3-.19.41-.26.24-.62.35-.97.28-.15-.02-.29-.08-.4-.19-.08-.09-.12-.21-.12-.34,0-.17.07-.34.18-.46Z"/></g><g id="Path_21"><path class="cls-2" d="m69.43,66.76c.05-.05.1-.09.15-.13.27-.18.62-.2.91-.05.2.15.41.22.42.48,0,.16-.07.3-.19.41-.26.24-.62.35-.97.28-.15-.02-.29-.08-.4-.19-.08-.09-.12-.21-.12-.34,0-.17.07-.34.18-.46Z"/></g><g id="Path_22"><path class="cls-2" d="m104.9,79.1c.05-.05.1-.09.15-.13.27-.18.62-.2.91-.05.2.15.41.22.42.48,0,.16-.07.3-.19.41-.26.24-.62.35-.97.28-.15-.02-.29-.08-.4-.19-.08-.09-.12-.21-.12-.34,0-.17.07-.34.18-.46Z"/></g><g id="Path_23"><path class="cls-2" d="m132.8,71.54c.05-.05.1-.09.15-.13.27-.18.62-.2.91-.05.2.15.41.22.42.48,0,.16-.07.3-.19.41-.26.24-.62.35-.97.28-.15-.02-.29-.08-.4-.19-.08-.09-.12-.21-.12-.34,0-.17.07-.34.18-.46Z"/></g><g id="Path_24"><path class="cls-2" d="m112.28,49.48c.05-.05.1-.09.15-.13.27-.18.62-.2.91-.05.2.15.41.22.42.48,0,.16-.07.3-.19.41-.26.24-.62.35-.97.28-.15-.02-.29-.08-.4-.19-.08-.09-.12-.21-.12-.34,0-.17.07-.34.18-.46Z"/></g><g id="Path_25"><path class="cls-2" d="m57.8,53.56c.05-.05.1-.09.15-.13.27-.18.62-.2.91-.05.2.15.41.22.42.48,0,.16-.07.3-.19.41-.26.24-.62.35-.97.28-.15-.02-.29-.08-.4-.19-.08-.09-.12-.21-.12-.34,0-.17.07-.34.18-.46Z"/></g><g id="Path_26"><path class="cls-2" d="m45.03,60.61c.05-.05.1-.09.15-.13.27-.18.62-.2.91-.05.2.15.41.22.42.48,0,.16-.07.3-.19.41-.26.24-.62.35-.97.28-.15-.02-.29-.08-.4-.19-.08-.09-.12-.21-.12-.34,0-.17.07-.34.18-.46Z"/></g><g id="Path_27"><path class="cls-2" d="m47.56,95.47c0-.07.02-.13.04-.2.11-.31.37-.54.69-.6.25,0,.46-.08.62.12.1.12.13.28.11.44-.05.35-.27.65-.58.82-.13.08-.28.11-.43.1-.12-.02-.23-.09-.3-.19-.11-.14-.16-.3-.15-.48Z"/></g><g id="Path_28"><path class="cls-2" d="m48.98,95.42c0-.07.02-.13.04-.2.11-.31.37-.54.69-.6.25,0,.46-.08.62.12.1.12.13.28.11.44-.05.35-.27.65-.58.82-.13.08-.28.11-.43.1-.12-.02-.23-.09-.3-.19-.11-.13-.16-.3-.15-.48Z"/></g><g id="Path_29"><path class="cls-2" d="m95.51,102.05c.05-.05.1-.09.15-.13.27-.18.62-.2.91-.05.2.15.41.22.42.48,0,.16-.07.3-.19.41-.26.24-.62.35-.97.28-.15-.02-.29-.08-.4-.19-.08-.09-.12-.21-.12-.34,0-.17.06-.34.18-.47h0Z"/></g><g id="Path_30"><path class="cls-2" d="m78.16,109.3c.08-.04.17-.08.26-.09.61-.08,1.23.02,1.79.28.45.24.89.4,1,.7.07.18-.04.31-.22.4-.59.18-1.22.17-1.8-.04-.3-.08-.59-.2-.85-.36-.16-.1-.29-.25-.36-.43-.07-.18,0-.38.18-.47Z"/></g><g id="Path_31"><path class="cls-2" d="m71.27,84.2c.05-.05.1-.09.15-.13.27-.18.62-.2.91-.05.2.15.41.22.42.48,0,.16-.07.3-.19.41-.26.24-.62.35-.97.28-.15-.02-.29-.08-.4-.19-.08-.09-.12-.21-.12-.34,0-.17.07-.34.18-.46Z"/></g><g id="Path_32"><path class="cls-2" d="m59.39,79.99c.05-.05.1-.09.15-.13.27-.18.62-.2.91-.05.2.15.41.22.42.48,0,.16-.07.3-.19.41-.26.24-.62.35-.97.28-.15-.02-.29-.08-.4-.19-.08-.09-.12-.21-.12-.34,0-.17.07-.34.18-.46Z"/></g><g id="Path_33"><path class="cls-2" d="m62.34,84.27c.04-.05.1-.09.15-.13.27-.18.62-.2.91-.05.2.15.41.22.42.48,0,.16-.07.3-.19.41-.26.24-.62.35-.97.28-.15-.02-.29-.08-.4-.19-.08-.09-.12-.21-.12-.34,0-.17.07-.34.18-.46Z"/></g><g id="Path_34"><path class="cls-2" d="m115.4,113.96c.05-.05.1-.09.15-.13.27-.18.62-.2.91-.05.2.15.41.22.42.48,0,.16-.07.3-.19.41-.26.24-.62.35-.97.28-.15-.02-.29-.08-.4-.19-.08-.09-.12-.21-.12-.34,0-.17.06-.34.18-.47Z"/></g><g id="Path_35"><path class="cls-2" d="m67.81,114.04c.05-.07.11-.13.18-.19.24-.2.71-.38.96-.17.19.17.4.24.38.57-.02.2-.11.4-.24.55-.25.32-.64.5-1.04.47-.15,0-.3-.08-.39-.2-.08-.13-.11-.28-.09-.42.02-.23.11-.44.24-.62Z"/></g><g id="Path_36"><path class="cls-2" d="m93.23,83.7c.05-.07.11-.13.18-.19.24-.2.71-.39.96-.17.19.17.4.24.38.58-.02.21-.11.4-.24.56-.25.32-.64.5-1.04.48-.15,0-.3-.08-.39-.2-.08-.13-.11-.28-.09-.43.02-.23.11-.45.24-.63h0Z"/></g><g id="Path_37"><path class="cls-2" d="m78.08,54.62c.05-.07.11-.13.18-.19.24-.2.71-.39.96-.17.19.17.4.24.38.58-.02.21-.11.4-.24.56-.25.32-.64.5-1.04.48-.15,0-.3-.08-.39-.2-.08-.13-.11-.28-.09-.43.02-.23.11-.45.24-.63h0Z"/></g></g><g id="Artwork_25"><g id="Artwork_25-2"><path id="Path_152" d="m490.57,55.95c-4.44.05-8.83-.96-12.8-2.95-5.88-2.83-9.17-9.21-8.07-15.63.92-9.7,6.7-15.97,14.94-20.39,5.29-2.85,11.38-3.87,17.3-2.88,4.33.78,8.59,1.89,12.75,3.34,8,2.59,15.91,5.47,23.89,8.13,5.47,1.81,11.18,2.77,16.95,2.87,7.45.03,14.77-1.92,21.21-5.67,2.03-1.17,4.17-2.14,6.39-2.88,2.31-.61,4.75.37,5.99,2.41,1.71,1.69,2.05,4.34.8,6.4-1.23,1.62-2.84,2.91-4.69,3.74-4.68,2.43-9.56,4.47-14.57,6.1-6.56,2.09-13.49,2.72-20.32,1.84-1.12-.36-2.32.26-2.68,1.37-.03.09-.05.17-.07.26-2.23,6.44-4.64,12.83-6.91,19.26-2.27,6.43-4.42,12.9-6.68,19.33-1.48,4.21-3.1,8.37-4.59,12.59-1.92,5.41-3.77,10.84-5.69,16.26-1.51,4.27-3.08,8.51-4.61,12.77-1.21,3.36-2.49,6.7-3.57,10.1-.9,3.22-4.23,5.11-7.45,4.21-.02,0-.04-.01-.06-.02-3.36-.98-5.29-4.49-4.32-7.85,0,0,0-.01,0-.02,2.81-7.93,5.68-15.84,8.48-23.78,2.9-8.24,5.71-16.5,8.63-24.73,2.23-6.31,4.62-12.56,6.85-18.88,2.25-6.37,4.4-12.77,6.59-19.16.04-.12.06-.26.11-.37,1.7-4.04,1.51-3.45-2.62-4.9-4.38-1.53-8.77-3.06-13.12-4.69-5.99-2.68-12.26-4.69-18.7-6-7.23-1.06-14.26,2.89-17.11,9.61-.59,1.81-.71,3.74-.36,5.61.3.88,1.02,1.54,1.92,1.75,3.23.25,6.48.28,9.73.23,1.86-.15,3.7.43,5.14,1.63,2.07,1.86,2.74,4.83,1.68,7.41-.81,2.03-2.82,3.33-5,3.22-1.79.2-3.58.26-5.37.36Z"/><path id="Path_153" d="m138.32,118.14c3.29.14,5.91,2.82,5.97,6.12-.12,2.61,1.09,5.09,3.21,6.61,1.01.77,2.2,1.29,3.46,1.51,9.44.67,18.07-1.33,24.8-8.53,3.04-3.46,5.4-7.47,6.94-11.81,2.62-6.66,4.42-13.62,5.36-20.71,1.1-8.37,2.17-16.74,3.13-25.13.75-6.55,1.13-13.15,2.03-19.66,1.28-9.28,3.32-18.33,9.01-26.15,4-6.11,10.15-10.49,17.24-12.27,8.89-1.94,18.21-.73,24.41,7.12,1.47,1.99,2.54,4.25,3.15,6.65,1.01,3.65-.66,6.09-4.37,7.27-2.92.68-5.89-.92-6.93-3.73-1.17-3.68-4.77-6.02-8.61-5.59-7.77.04-12.92,4.12-16.49,10.6-2.84,5.24-4.61,10.99-5.21,16.93-1.13,10.24-1.99,20.52-3.1,30.75-.83,9.95-2.58,19.79-5.21,29.42-2.2,8.36-6.05,16.18-11.34,23.02-4.82,6.02-11.39,10.41-18.8,12.56-4.07,1.36-8.34,2.02-12.63,1.97-8.11.05-15.62-4.26-19.66-11.29-2-3.22-2.91-7-2.59-10.78.67-2.88,3.26-4.9,6.22-4.85Z"/><path id="Path_154" d="m237,86.16c-.81,3.6-1.63,7.19-2.43,10.8-1.28,5.79-2.55,11.59-3.82,17.39-.84,3.87-1.67,7.75-2.48,11.63-.27,2.49-2,4.57-4.4,5.29-2.26.81-4.78.07-6.24-1.84-.97-1.25-1.45-2.8-1.37-4.38.79-4.85,2.02-9.62,3.09-14.42.88-3.93,1.78-7.87,2.65-11.8,1.31-5.92,2.62-11.84,3.91-17.77,1.15-5.3,2.32-10.6,3.41-15.92.46-3.29,3.08-5.86,6.39-6.25,3.12-.21,5.98,1.74,6.94,4.72,1.57,4.1,2.86,8.3,4.31,12.45,1.47,4.21,3.02,8.39,4.48,12.61,1.27,3.67,2.48,7.36,3.7,11.05.42,1.27.75,2.57,1.2,3.83.13.35.55.6.83.89.31-.34.81-.64.91-1.05.45-1.73.79-3.49,1.17-5.24,1.26-5.74,2.54-11.47,3.79-17.21,1.19-5.43,2.36-10.87,3.51-16.3.34-2.68,2.23-4.9,4.82-5.66,2.09-.58,4.34.07,5.8,1.67,1.47,1.41,2.06,3.5,1.53,5.47-1.51,6.79-3.15,13.55-4.65,20.34-1.22,5.48-2.29,11.01-3.52,16.48-1.15,5.17-2.41,10.31-3.62,15.47-.77,3.32-1.41,6.64-2.35,9.87-.53,2.12-2.27,3.71-4.43,4.05-2.12.28-4.18-.86-5.06-2.81-1.81-3.57-3.46-7.24-4.98-10.95-2.1-5.13-4.04-10.33-5.98-15.52-1.89-5.07-3.67-10.18-5.54-15.26-.31-.64-.68-1.26-1.1-1.84l-.49.21Z"/><path id="Path_155" d="m682.52,90.67c.71.05,1.44.14,2.18.14,6.16.01,12.32,0,18.47.02,2.58-.28,5.01,1.27,5.83,3.73.9,2.87-.39,5.96-3.06,7.34-1.24.51-2.57.74-3.91.69-6.6.07-13.21.03-19.81.04-2.4,0-2.75.36-3.17,2.62-.77,4.08-1.47,8.18-2.49,12.2-.52,2.04.5,2.02,1.84,2.03h21.74c.71,0,1.41-.02,2.12.03,3.1-.06,5.66,2.41,5.71,5.51,0,.21,0,.42-.02.63-.09,3.24-2.75,5.81-5.98,5.78-11.35.06-22.7.05-34.05-.03-1.4-.1-2.76-.48-4-1.12-1.28-.6-1.97-2.01-1.66-3.39.55-3.73,1.07-7.48,1.85-11.16,1.07-5.06,2.42-10.07,3.55-15.12,1.69-7.54,3.25-15.11,4.92-22.66,1.02-4.61,2.07-9.23,3.25-13.8.81-3.22,3.73-5.46,7.05-5.4,10.52-.02,21.03-.02,31.55,0,3.08-.34,5.85,1.88,6.2,4.96.03.27.04.54.03.81.2,3.31-2.33,6.15-5.64,6.35-.25.01-.5.01-.75,0-8.33.03-16.67.07-25-.02-1.95-.02-2.9.35-3.3,2.55-.99,5.52-2.34,10.99-3.54,16.48,0,.27.04.53.12.79v.02Z"/><path id="Path_156" d="m418.07,90.82h4.27c5.39,0,10.77-.02,16.15.01,3.91.03,6.08,1.93,6.16,5.3.38,3.16-1.88,6.03-5.04,6.41-.33.04-.66.05-.99.03-6.92.13-13.85.06-20.77.07-2.62,0-2.9.34-3.37,2.86-.74,4.02-1.49,8.05-2.46,12.02-.44,1.78.26,2,1.68,2,7.37-.02,14.74-.02,22.12,0,.77-.02,1.54,0,2.3.08,3.07.13,5.45,2.72,5.33,5.78,0,.17-.02.34-.04.51-.19,3.08-2.72,5.5-5.8,5.56-11.47.07-22.95.2-34.42-.08-4.48-.11-6.19-2.05-5.31-6.19,1.28-6.06,2.5-12.14,3.8-18.19,1.14-5.31,2.36-10.6,3.53-15.9,1.26-5.74,2.47-11.48,3.74-17.22.72-3.24,1.45-6.49,2.33-9.7.83-3.29,3.86-5.55,7.25-5.41,10.38-.02,20.77-.02,31.16,0,3.09-.43,5.93,1.73,6.36,4.82.04.32.06.63.05.95.2,3.31-2.32,6.16-5.64,6.36-.31.02-.62.01-.93-.02-8.27.02-16.54.07-24.81-.03-1.96-.02-2.9.36-3.3,2.55-.98,5.52-2.33,10.99-3.52,16.48.02.32.08.64.18.95Z"/><path id="Path_157" d="m333.86,122.79c.12,3.55.54,6.05-1.91,8.02-3.19,2.57-9.05,1.52-9.74-3.02-.31-2.02-.65-4.04-.79-6.07-.08-1.25-.52-1.65-1.75-1.65-6.73.04-13.46.04-20.19,0-.96-.08-1.85.51-2.15,1.43-1.89,3.89-3.99,7.68-5.95,11.54-1.33,2.99-4.83,4.34-7.82,3.02-.14-.06-.28-.13-.41-.2-2.73-1.14-4.02-4.27-2.88-7,.13-.3.28-.59.46-.86,4.9-9.29,9.55-18.72,14.5-27.98,6.89-12.86,13.9-25.66,21.05-38.39,1.01-1.75,2.58-3.12,4.46-3.86,3.5-1.19,6.27,1.29,6.79,5.48.31,2.54.62,5.08.88,7.62,1.16,11.34,2.29,22.68,3.46,34.01.66,6.32,1.39,12.62,1.99,17.91Zm-16.59-36.94h-.71c-3.63,6.77-7.25,13.54-10.88,20.31-.88,1.66-.72,1.95,1.18,1.97,3.84.04,7.68-.05,11.51.05,1.63.04,1.79-.73,1.63-2.01-.63-5.39-1.22-10.79-1.88-16.17-.17-1.39-.56-2.76-.86-4.14Z"/><path id="Path_158" d="m594.36,123.89c.07,2.64.36,5.24-2.26,7.11-3.24,2.32-8.77,1.23-9.49-3.12-.33-2.01-.65-4.04-.8-6.07-.09-1.15-.34-1.75-1.65-1.74-6.79.04-13.59,0-20.39.07-.76.09-1.44.51-1.86,1.15-2.13,3.91-4.16,7.88-6.19,11.85-1.33,2.96-4.81,4.29-7.78,2.96-.24-.11-.46-.23-.68-.36-2.63-1.2-3.78-4.3-2.58-6.93.11-.25.25-.49.4-.72,4.89-9.37,9.61-18.83,14.58-28.16,5.4-10.12,11.01-20.13,16.52-30.19,1.35-2.75,2.84-5.42,4.46-8.02,1.05-1.72,2.58-3.08,4.41-3.93,3.5-1.24,6.31,1.19,6.87,5.38.34,2.6.63,5.21.9,7.82,1.17,11.46,2.3,22.93,3.5,34.39.63,6.17,1.37,12.34,2.06,18.51Zm-16.64-38.03l-.75-.02-11.22,20.81c-.67,1.25.17,1.47,1.12,1.48,2.88.03,5.77.02,8.65.02h5.02c-1.15-7.61-1.38-15.03-2.82-22.29h0Z"/><path id="Path_159" d="m365.66,98.19c-1.55,1.04-3.04,2.18-4.46,3.41-.77.81-1.31,1.8-1.57,2.88-1.31,5.26-2.5,10.55-3.72,15.83-.47,2.05-.9,4.12-1.36,6.18-.47,2.89-2.97,5.01-5.9,5-3.04.23-5.69-2.03-5.94-5.07-.07-2.49.21-4.97.83-7.39,1.52-6.86,3.27-13.66,4.84-20.5,1.66-7.22,3.25-14.45,4.82-21.68.83-3.8,1.53-7.63,2.38-11.43.3-2.57,1.8-4.85,4.05-6.15,3-1.57,8.95,1.25,8.3,5.1-.75,4.4-1.64,8.78-2.52,13.15-.3,1.49-.74,2.95-1.23,4.86.77-.43,1.52-.9,2.24-1.41,7.75-6.17,15.5-12.32,23.2-18.55,3.82-3.09,6.87-2.77,9.39.08,1.9,2.26,1.68,5.61-.49,7.6-4.21,3.52-8.54,6.91-12.83,10.34-3.54,2.83-7.16,5.58-10.62,8.5-.61.66-.85,1.58-.66,2.45,2.74,6.31,5.64,12.54,8.47,18.8,2.12,4.7,4.28,9.38,6.2,14.16.25,1.16.1,2.37-.42,3.43-1.07,2.4-3.52,3.89-6.14,3.74-2.38-.17-4.41-1.77-5.13-4.04-3.19-7.57-6.17-15.23-9.22-22.86-.82-2.08-1.61-4.15-2.51-6.45Z"/><path id="Path_160" d="m769.19,105.19c.2,11.76-7.03,22.37-18.05,26.48-5.77,2.24-12.16,2.29-17.97.13-3.24-.96-6.22-2.66-8.68-4.98-2.66-2.25-2.98-6.23-.73-8.89.49-.57,1.07-1.06,1.73-1.42,1.95-1.18,4.41-1.13,6.31.12,1.59,1.27,3.27,2.42,5.03,3.44,5.46,2.8,12.47-.11,16.7-4.74,1.75-1.71,2.89-3.95,3.25-6.37.44-3.93-.98-5.97-5.34-7.62-4.46-1.69-9.02-3.2-13.35-5.2-7.3-3.35-9.36-10.61-7.77-18.09,1.36-6.85,5.38-12.88,11.19-16.75,4.42-3.15,9.75-4.74,15.18-4.53,6.57-.11,12.82,2.83,16.93,7.96,2.62,2.81,2.47,7.22-.34,9.84-.52.48-1.11.89-1.75,1.19-2.49,1.49-5.72.7-7.25-1.76-1.16-2.39-3.34-4.12-5.93-4.72-3.46-.51-6.98.25-9.92,2.15-3.24,1.93-5.44,5.21-5.99,8.94-.45,2.7,1.13,5.34,3.73,6.21,3.28,1.22,6.66,2.16,9.96,3.31,4.44,1.54,8.73,3.35,11.26,7.68,1.35,2.3,1.98,4.95,1.81,7.61Z"/><path id="Path_161" d="m627.71,131.5c-5.77,0-11.54.03-17.3,0-3.65-.03-4.96-1.89-4.21-5.46.95-4.56,1.69-9.18,2.62-13.74.79-3.81,1.75-7.58,2.57-11.39.85-3.93,1.63-7.88,2.45-11.82,1.25-6,2.47-12.01,3.8-17.99.61-2.87,1.38-5.7,2.31-8.48.95-2.87,4.02-4.46,6.91-3.58,3.17.81,5.08,4.04,4.27,7.21-.02.09-.05.17-.07.26-1.36,5.77-2.56,11.6-3.84,17.39-1.25,5.67-2.53,11.33-3.78,17.01-.79,3.62-1.55,7.25-2.32,10.88-.37,1.75-.8,3.49-1.08,5.26-.35,2.25-.13,2.48,2.11,2.48,7.12.02,14.23,0,21.35.02.96,0,1.91.14,2.88.16,3.04.04,5.47,2.54,5.43,5.58,0,.14,0,.27-.02.41-.1,3.3-2.86,5.9-6.16,5.81,0,0-.01,0-.02,0-5.98.05-11.95,0-17.9,0Z"/></g></g></svg>